<?xml version="1.0" encoding="UTF-8"?>
<svg id="Layer_2" data-name="Layer 2" xmlns="http://www.w3.org/2000/svg" viewBox="0 0 3947.62 4324.31">
  <defs>
    <style>
      .cls-1 {
        fill: #fffffaff;
      }
    </style>
  </defs>
  <g id="Layer_2-2" data-name="Layer 2">
    <path class="cls-1" d="m270.7,2853.29c162.58-334.25,529.76-971,1255.06-1480.57,489.36-343.81,963.48-504.49,1283.02-584.02-362.53,266.22-642.7,518.1-841.79,711.49-112.12,108.91-845.43,829.4-1250.15,1622.75-149.34,292.75-244.86,577.62-250.03,593.21-63.29,190.9-102.58,356.62-127.47,480.45,2.76,19.55,10.31,51.29,34.32,78.44,45.08,50.98,116.54,49.96,181.39,49.03,59.11-.85,109.93-1.58,145.89-36.38,37.45-36.25,38.15-89.49,40.05-124.68,6.03-111.66,43.23-219.71,74.22-327.16,71.04-246.32,184.34-471.6,220.3-541.32,99.1,27.12,945.38,244.76,1568.92-269.52,379.21-312.76,515.02-763.41,553.89-892.39,87.2-289.34,68.05-467.66,88.25-681.46,33.89-358.77,182.44-858.5,701.07-1451.16-429.23,37.4-795.46,95.92-1083.47,151.98-262.89,51.17-627.73,123.5-1090.77,277.78-303.23,101.03-454.85,151.55-630.02,241.9C840.44,827.88,119.78,1199.58,13.17,1880.16c-63.65,406.33,116.58,763.11,257.52,973.13Z"/>
  </g>
</svg>